G75*
G70*
%OFA0B0*%
%FSLAX24Y24*%
%IPPOS*%
%LPD*%
%AMOC8*
5,1,8,0,0,1.08239X$1,22.5*
%
%ADD10C,0.0120*%
%ADD11C,0.0050*%
%ADD12C,0.0160*%
%ADD13C,0.0090*%
%ADD14C,0.0080*%
%ADD15C,0.0100*%
%ADD16C,0.0060*%
%ADD17C,0.0070*%
%ADD18R,0.0230X0.0160*%
%ADD19C,0.0040*%
D10*
X005653Y009713D02*
X005655Y009728D01*
X005660Y009742D01*
X005669Y009754D01*
X005681Y009764D01*
X005694Y009770D01*
X005709Y009773D01*
X005724Y009772D01*
X005739Y009767D01*
X005751Y009759D01*
X005762Y009748D01*
X005769Y009735D01*
X005773Y009721D01*
X005773Y009705D01*
X005769Y009691D01*
X005762Y009678D01*
X005751Y009667D01*
X005739Y009659D01*
X005724Y009654D01*
X005709Y009653D01*
X005694Y009656D01*
X005681Y009662D01*
X005669Y009672D01*
X005660Y009684D01*
X005655Y009698D01*
X005653Y009713D01*
X008465Y015025D02*
X008467Y015040D01*
X008472Y015054D01*
X008481Y015066D01*
X008493Y015076D01*
X008506Y015082D01*
X008521Y015085D01*
X008536Y015084D01*
X008551Y015079D01*
X008563Y015071D01*
X008574Y015060D01*
X008581Y015047D01*
X008585Y015033D01*
X008585Y015017D01*
X008581Y015003D01*
X008574Y014990D01*
X008563Y014979D01*
X008551Y014971D01*
X008536Y014966D01*
X008521Y014965D01*
X008506Y014968D01*
X008493Y014974D01*
X008481Y014984D01*
X008472Y014996D01*
X008467Y015010D01*
X008465Y015025D01*
D11*
X001133Y004488D02*
X001133Y004238D01*
X001050Y004488D02*
X001217Y004488D01*
X001326Y004488D02*
X001493Y004488D01*
X001410Y004488D02*
X001410Y004238D01*
X001602Y004238D02*
X001769Y004488D01*
X001602Y004488D02*
X001769Y004238D01*
X002133Y004238D02*
X002133Y004488D01*
X002050Y004488D02*
X002217Y004488D01*
X002326Y004488D02*
X002326Y004238D01*
X002326Y004321D02*
X002451Y004321D01*
X002493Y004363D01*
X002493Y004446D01*
X002451Y004488D01*
X002326Y004488D01*
X002410Y004321D02*
X002493Y004238D01*
X002602Y004238D02*
X002769Y004488D01*
X002602Y004488D02*
X002769Y004238D01*
X002838Y005800D02*
X002671Y005800D01*
X002671Y006050D01*
X002562Y006050D02*
X002562Y005800D01*
X002395Y006050D01*
X002395Y005800D01*
X002285Y005842D02*
X002285Y006009D01*
X002244Y006050D01*
X002160Y006050D01*
X002119Y006009D01*
X002119Y005842D01*
X002160Y005800D01*
X002244Y005800D01*
X002285Y005842D01*
X001733Y006050D02*
X001566Y006050D01*
X001650Y006050D02*
X001650Y005800D01*
X001457Y005842D02*
X001415Y005800D01*
X001332Y005800D01*
X001290Y005842D01*
X001332Y005925D02*
X001415Y005925D01*
X001457Y005883D01*
X001457Y005842D01*
X001332Y005925D02*
X001290Y005967D01*
X001290Y006009D01*
X001332Y006050D01*
X001415Y006050D01*
X001457Y006009D01*
X001181Y006050D02*
X001014Y006050D01*
X001014Y005800D01*
X001181Y005800D01*
X001097Y005925D02*
X001014Y005925D01*
X000904Y006050D02*
X000738Y006050D01*
X000821Y006050D02*
X000821Y005800D01*
X002947Y006009D02*
X003031Y005925D01*
X003031Y005800D01*
X003031Y005925D02*
X003114Y006009D01*
X003114Y006050D01*
X002947Y006050D02*
X002947Y006009D01*
X003666Y007666D02*
X003666Y007823D01*
X003666Y007666D02*
X003823Y007666D01*
X005477Y007666D02*
X005634Y007666D01*
X005634Y007823D01*
X005320Y009359D02*
X005322Y009371D01*
X005327Y009382D01*
X005336Y009391D01*
X005347Y009396D01*
X005359Y009398D01*
X005371Y009396D01*
X005382Y009391D01*
X005391Y009382D01*
X005396Y009371D01*
X005398Y009359D01*
X005396Y009347D01*
X005391Y009336D01*
X005382Y009327D01*
X005371Y009322D01*
X005359Y009320D01*
X005347Y009322D01*
X005336Y009327D01*
X005327Y009336D01*
X005322Y009347D01*
X005320Y009359D01*
X005477Y009634D02*
X005634Y009477D01*
X003823Y009634D02*
X003666Y009634D01*
X003666Y009477D01*
X008753Y003035D02*
X008878Y003035D01*
X008920Y002993D01*
X008920Y002909D01*
X008878Y002868D01*
X008753Y002868D01*
X008837Y002868D02*
X008920Y002784D01*
X009029Y002784D02*
X009196Y002784D01*
X009306Y002826D02*
X009347Y002784D01*
X009431Y002784D01*
X009472Y002826D01*
X009472Y002868D01*
X009431Y002909D01*
X009347Y002909D01*
X009306Y002951D01*
X009306Y002993D01*
X009347Y003035D01*
X009431Y003035D01*
X009472Y002993D01*
X009582Y003035D02*
X009582Y002784D01*
X009749Y002784D01*
X009665Y002909D02*
X009582Y002909D01*
X009582Y003035D02*
X009749Y003035D01*
X009858Y003035D02*
X010025Y003035D01*
X009941Y003035D02*
X009941Y002784D01*
X009196Y003035D02*
X009029Y003035D01*
X009029Y002784D01*
X009029Y002909D02*
X009113Y002909D01*
X008753Y002784D02*
X008753Y003035D01*
X007754Y002238D02*
X007587Y002238D01*
X007670Y002238D02*
X007670Y001988D01*
X007477Y002029D02*
X007436Y001988D01*
X007352Y001988D01*
X007311Y002029D01*
X007311Y002196D01*
X007352Y002238D01*
X007436Y002238D01*
X007477Y002196D01*
X007201Y002154D02*
X007201Y001988D01*
X007201Y002113D02*
X007034Y002113D01*
X007034Y002154D02*
X007118Y002238D01*
X007201Y002154D01*
X007034Y002154D02*
X007034Y001988D01*
X007050Y001410D02*
X007175Y001410D01*
X007217Y001368D01*
X007217Y001284D01*
X007175Y001243D01*
X007050Y001243D01*
X007050Y001159D02*
X007050Y001410D01*
X007326Y001410D02*
X007326Y001159D01*
X007410Y001243D01*
X007493Y001159D01*
X007493Y001410D01*
X007602Y001410D02*
X007602Y001159D01*
X007602Y001243D02*
X007728Y001243D01*
X007769Y001284D01*
X007769Y001368D01*
X007728Y001410D01*
X007602Y001410D01*
X007686Y001243D02*
X007769Y001159D01*
X011209Y002000D02*
X011209Y002270D01*
X011389Y002000D01*
X011389Y002270D01*
X011503Y002225D02*
X011503Y002045D01*
X011548Y002000D01*
X011638Y002000D01*
X011683Y002045D01*
X011683Y002225D02*
X011638Y002270D01*
X011548Y002270D01*
X011503Y002225D01*
X012096Y002270D02*
X012186Y002270D01*
X012141Y002270D02*
X012141Y002000D01*
X012096Y002000D02*
X012186Y002000D01*
X012292Y002045D02*
X012292Y002225D01*
X012337Y002270D01*
X012428Y002270D01*
X012473Y002225D01*
X012473Y002045D01*
X012428Y002000D01*
X012337Y002000D01*
X012292Y002045D01*
X012587Y002000D02*
X012587Y002270D01*
X012722Y002270D01*
X012767Y002225D01*
X012767Y002135D01*
X012722Y002090D01*
X012587Y002090D01*
X012677Y002090D02*
X012767Y002000D01*
X013021Y002000D02*
X013021Y002270D01*
X013156Y002270D01*
X013201Y002225D01*
X013201Y002135D01*
X013156Y002090D01*
X013021Y002090D01*
X013111Y002090D02*
X013201Y002000D01*
X013316Y002045D02*
X013361Y002000D01*
X013451Y002000D01*
X013496Y002045D01*
X013496Y002090D01*
X013451Y002135D01*
X013361Y002135D01*
X013316Y002180D01*
X013316Y002225D01*
X013361Y002270D01*
X013451Y002270D01*
X013496Y002225D01*
X013610Y002270D02*
X013790Y002270D01*
X013700Y002270D02*
X013700Y002000D01*
X014020Y002058D02*
X014065Y002013D01*
X014155Y002013D01*
X014200Y002058D01*
X014200Y002103D01*
X014155Y002148D01*
X014110Y002148D01*
X014155Y002148D02*
X014200Y002193D01*
X014200Y002238D01*
X014155Y002283D01*
X014065Y002283D01*
X014020Y002238D01*
X013880Y002370D02*
X012996Y002370D01*
X014314Y002283D02*
X014314Y002103D01*
X014404Y002013D01*
X014494Y002103D01*
X014494Y002283D01*
X014609Y002238D02*
X014654Y002283D01*
X014744Y002283D01*
X014789Y002238D01*
X014789Y002193D01*
X014744Y002148D01*
X014789Y002103D01*
X014789Y002058D01*
X014744Y002013D01*
X014654Y002013D01*
X014609Y002058D01*
X014699Y002148D02*
X014744Y002148D01*
X015132Y002148D02*
X015222Y002193D01*
X015267Y002193D01*
X015312Y002148D01*
X015312Y002058D01*
X015267Y002013D01*
X015177Y002013D01*
X015132Y002058D01*
X015132Y002148D02*
X015132Y002283D01*
X015312Y002283D01*
X015427Y002283D02*
X015427Y002103D01*
X015517Y002013D01*
X015607Y002103D01*
X015607Y002283D01*
X016016Y002238D02*
X016016Y002058D01*
X016062Y002013D01*
X016152Y002013D01*
X016197Y002058D01*
X016197Y002148D01*
X016107Y002148D01*
X016197Y002238D02*
X016152Y002283D01*
X016062Y002283D01*
X016016Y002238D01*
X016311Y002283D02*
X016311Y002013D01*
X016491Y002013D02*
X016311Y002283D01*
X016491Y002283D02*
X016491Y002013D01*
X016606Y002013D02*
X016741Y002013D01*
X016786Y002058D01*
X016786Y002238D01*
X016741Y002283D01*
X016606Y002283D01*
X016606Y002013D01*
X017016Y002058D02*
X017062Y002013D01*
X017152Y002013D01*
X017197Y002058D01*
X017197Y002148D01*
X017107Y002148D01*
X017197Y002238D02*
X017152Y002283D01*
X017062Y002283D01*
X017016Y002238D01*
X017016Y002058D01*
X017311Y002013D02*
X017311Y002283D01*
X017491Y002013D01*
X017491Y002283D01*
X017606Y002283D02*
X017606Y002013D01*
X017741Y002013D01*
X017786Y002058D01*
X017786Y002238D01*
X017741Y002283D01*
X017606Y002283D01*
X018032Y002283D02*
X018032Y002103D01*
X018122Y002013D01*
X018212Y002103D01*
X018212Y002283D01*
X018327Y002283D02*
X018417Y002283D01*
X018372Y002283D02*
X018372Y002013D01*
X018327Y002013D02*
X018417Y002013D01*
X018523Y002013D02*
X018523Y002283D01*
X018703Y002013D01*
X018703Y002283D01*
X020325Y002238D02*
X020325Y002058D01*
X020505Y002238D01*
X020505Y002058D01*
X020460Y002013D01*
X020370Y002013D01*
X020325Y002058D01*
X020325Y002238D02*
X020370Y002283D01*
X020460Y002283D01*
X020505Y002238D01*
X021338Y002193D02*
X021428Y002283D01*
X021428Y002013D01*
X021338Y002013D02*
X021518Y002013D01*
X022325Y002013D02*
X022505Y002193D01*
X022505Y002238D01*
X022460Y002283D01*
X022370Y002283D01*
X022325Y002238D01*
X022325Y002013D02*
X022505Y002013D01*
X023325Y002058D02*
X023370Y002013D01*
X023460Y002013D01*
X023505Y002058D01*
X023505Y002103D01*
X023460Y002148D01*
X023415Y002148D01*
X023460Y002148D02*
X023505Y002193D01*
X023505Y002238D01*
X023460Y002283D01*
X023370Y002283D01*
X023325Y002238D01*
X024325Y002148D02*
X024505Y002148D01*
X024460Y002283D02*
X024325Y002148D01*
X024460Y002013D02*
X024460Y002283D01*
X025325Y002283D02*
X025325Y002148D01*
X025415Y002193D01*
X025460Y002193D01*
X025505Y002148D01*
X025505Y002058D01*
X025460Y002013D01*
X025370Y002013D01*
X025325Y002058D01*
X025325Y002283D02*
X025505Y002283D01*
X024106Y000815D02*
X024106Y000545D01*
X023925Y000815D01*
X023925Y000545D01*
X023819Y000545D02*
X023729Y000545D01*
X023774Y000545D02*
X023774Y000815D01*
X023729Y000815D02*
X023819Y000815D01*
X023320Y000770D02*
X023275Y000815D01*
X023185Y000815D01*
X023140Y000770D01*
X023140Y000590D01*
X023185Y000545D01*
X023275Y000545D01*
X023320Y000590D01*
X023320Y000680D01*
X023230Y000680D01*
X023025Y000590D02*
X023025Y000770D01*
X022980Y000815D01*
X022890Y000815D01*
X022845Y000770D01*
X022845Y000590D01*
X022890Y000545D01*
X022980Y000545D01*
X023025Y000590D01*
X022731Y000545D02*
X022550Y000545D01*
X022550Y000815D01*
X022436Y000725D02*
X022436Y000545D01*
X022436Y000680D02*
X022256Y000680D01*
X022256Y000725D02*
X022346Y000815D01*
X022436Y000725D01*
X022256Y000725D02*
X022256Y000545D01*
X022141Y000545D02*
X022141Y000815D01*
X021961Y000815D02*
X021961Y000545D01*
X021847Y000545D02*
X021847Y000725D01*
X021757Y000815D01*
X021666Y000725D01*
X021666Y000545D01*
X021666Y000680D02*
X021847Y000680D01*
X021961Y000815D02*
X022141Y000545D01*
X022357Y010722D02*
X022315Y010764D01*
X022357Y010722D02*
X022440Y010722D01*
X022482Y010764D01*
X022482Y010805D01*
X022440Y010847D01*
X022357Y010847D01*
X022315Y010889D01*
X022315Y010930D01*
X022357Y010972D01*
X022440Y010972D01*
X022482Y010930D01*
X022591Y010930D02*
X022591Y010764D01*
X022633Y010722D01*
X022716Y010722D01*
X022758Y010764D01*
X022867Y010805D02*
X023034Y010972D01*
X023119Y011072D02*
X022290Y011072D01*
X022591Y010930D02*
X022633Y010972D01*
X022716Y010972D01*
X022758Y010930D01*
X022867Y010972D02*
X022867Y010722D01*
X022909Y010847D02*
X023034Y010722D01*
X023064Y011784D02*
X023147Y011784D01*
X023105Y011784D02*
X023105Y012035D01*
X023064Y012035D02*
X023147Y012035D01*
X022954Y011993D02*
X022913Y012035D01*
X022829Y012035D01*
X022787Y011993D01*
X022787Y011951D01*
X022829Y011909D01*
X022913Y011909D01*
X022954Y011868D01*
X022954Y011826D01*
X022913Y011784D01*
X022829Y011784D01*
X022787Y011826D01*
X022678Y011826D02*
X022678Y011993D01*
X022636Y012035D01*
X022553Y012035D01*
X022511Y011993D01*
X022511Y011826D01*
X022553Y011784D01*
X022636Y011784D01*
X022678Y011826D01*
X022402Y011784D02*
X022402Y012035D01*
X022318Y011951D01*
X022235Y012035D01*
X022235Y011784D01*
X022235Y012784D02*
X022235Y013035D01*
X022318Y012951D01*
X022402Y013035D01*
X022402Y012784D01*
X022511Y012784D02*
X022595Y012784D01*
X022553Y012784D02*
X022553Y013035D01*
X022511Y013035D02*
X022595Y013035D01*
X022695Y012993D02*
X022695Y012951D01*
X022737Y012909D01*
X022820Y012909D01*
X022862Y012868D01*
X022862Y012826D01*
X022820Y012784D01*
X022737Y012784D01*
X022695Y012826D01*
X022695Y012993D02*
X022737Y013035D01*
X022820Y013035D01*
X022862Y012993D01*
X022972Y012993D02*
X022972Y012826D01*
X023013Y012784D01*
X023097Y012784D01*
X023138Y012826D01*
X023138Y012993D01*
X023097Y013035D01*
X023013Y013035D01*
X022972Y012993D01*
X022738Y016019D02*
X022655Y016102D01*
X022696Y016019D02*
X022738Y016060D01*
X022738Y016227D01*
X022696Y016269D01*
X022613Y016269D01*
X022571Y016227D01*
X022571Y016060D01*
X022613Y016019D01*
X022696Y016019D01*
X022462Y016019D02*
X022295Y016019D01*
X022295Y016269D01*
X022462Y016269D01*
X022378Y016144D02*
X022295Y016144D01*
X022186Y016144D02*
X022144Y016102D01*
X022019Y016102D01*
X022102Y016102D02*
X022186Y016019D01*
X022186Y016144D02*
X022186Y016227D01*
X022144Y016269D01*
X022019Y016269D01*
X022019Y016019D01*
X021994Y016369D02*
X022822Y016369D01*
X022994Y016384D02*
X023822Y016384D01*
X023738Y016285D02*
X023738Y016243D01*
X023655Y016159D01*
X023655Y016034D01*
X023655Y016159D02*
X023571Y016243D01*
X023571Y016285D01*
X023462Y016243D02*
X023420Y016285D01*
X023295Y016285D01*
X023295Y016034D01*
X023420Y016034D01*
X023462Y016076D01*
X023462Y016243D01*
X023186Y016243D02*
X023186Y016159D01*
X023144Y016118D01*
X023019Y016118D01*
X023102Y016118D02*
X023186Y016034D01*
X023019Y016034D02*
X023019Y016285D01*
X023144Y016285D01*
X023186Y016243D01*
X023300Y019500D02*
X023480Y019680D01*
X023480Y019725D01*
X023435Y019770D01*
X023345Y019770D01*
X023300Y019725D01*
X023300Y019500D02*
X023480Y019500D01*
X024363Y019500D02*
X024543Y019500D01*
X024453Y019500D02*
X024453Y019770D01*
X024363Y019680D01*
X025300Y019725D02*
X025300Y019545D01*
X025480Y019725D01*
X025480Y019545D01*
X025435Y019500D01*
X025345Y019500D01*
X025300Y019545D01*
X025300Y019725D02*
X025345Y019770D01*
X025435Y019770D01*
X025480Y019725D01*
X022932Y021070D02*
X022932Y021250D01*
X022887Y021295D01*
X022797Y021295D01*
X022752Y021250D01*
X022752Y021070D01*
X022797Y021025D01*
X022887Y021025D01*
X022932Y021070D01*
X022637Y021295D02*
X022457Y021025D01*
X022351Y021025D02*
X022261Y021025D01*
X022306Y021025D02*
X022306Y021295D01*
X022261Y021295D02*
X022351Y021295D01*
X021852Y021025D02*
X021671Y021025D01*
X021671Y021295D01*
X021557Y021205D02*
X021557Y021025D01*
X021557Y021160D02*
X021377Y021160D01*
X021377Y021205D02*
X021467Y021295D01*
X021557Y021205D01*
X021377Y021205D02*
X021377Y021025D01*
X021172Y021025D02*
X021172Y021295D01*
X021082Y021295D02*
X021262Y021295D01*
X020976Y021295D02*
X020886Y021295D01*
X020931Y021295D02*
X020931Y021025D01*
X020886Y021025D02*
X020976Y021025D01*
X020771Y021070D02*
X020771Y021160D01*
X020681Y021160D01*
X020591Y021250D02*
X020591Y021070D01*
X020636Y021025D01*
X020726Y021025D01*
X020771Y021070D01*
X020771Y021250D02*
X020726Y021295D01*
X020636Y021295D01*
X020591Y021250D01*
X020485Y021295D02*
X020395Y021295D01*
X020440Y021295D02*
X020440Y021025D01*
X020395Y021025D02*
X020485Y021025D01*
X020280Y021070D02*
X020280Y021250D01*
X020235Y021295D01*
X020100Y021295D01*
X020100Y021025D01*
X020235Y021025D01*
X020280Y021070D01*
X020300Y019770D02*
X020300Y019635D01*
X020390Y019680D01*
X020435Y019680D01*
X020480Y019635D01*
X020480Y019545D01*
X020435Y019500D01*
X020345Y019500D01*
X020300Y019545D01*
X020300Y019770D02*
X020480Y019770D01*
X021300Y019635D02*
X021480Y019635D01*
X021435Y019500D02*
X021435Y019770D01*
X021300Y019635D01*
X022300Y019545D02*
X022345Y019500D01*
X022435Y019500D01*
X022480Y019545D01*
X022480Y019590D01*
X022435Y019635D01*
X022390Y019635D01*
X022435Y019635D02*
X022480Y019680D01*
X022480Y019725D01*
X022435Y019770D01*
X022345Y019770D01*
X022300Y019725D01*
X019480Y019770D02*
X019390Y019725D01*
X019300Y019635D01*
X019435Y019635D01*
X019480Y019590D01*
X019480Y019545D01*
X019435Y019500D01*
X019345Y019500D01*
X019300Y019545D01*
X019300Y019635D01*
X018480Y019725D02*
X018300Y019545D01*
X018300Y019500D01*
X018300Y019770D02*
X018480Y019770D01*
X018480Y019725D01*
X016893Y019725D02*
X016893Y019680D01*
X016848Y019635D01*
X016758Y019635D01*
X016713Y019680D01*
X016713Y019725D01*
X016758Y019770D01*
X016848Y019770D01*
X016893Y019725D01*
X016848Y019635D02*
X016893Y019590D01*
X016893Y019545D01*
X016848Y019500D01*
X016758Y019500D01*
X016713Y019545D01*
X016713Y019590D01*
X016758Y019635D01*
X015893Y019635D02*
X015758Y019635D01*
X015713Y019680D01*
X015713Y019725D01*
X015758Y019770D01*
X015848Y019770D01*
X015893Y019725D01*
X015893Y019545D01*
X015848Y019500D01*
X015758Y019500D01*
X015713Y019545D01*
X015037Y019545D02*
X014992Y019500D01*
X014902Y019500D01*
X014857Y019545D01*
X015037Y019725D01*
X015037Y019545D01*
X014857Y019545D02*
X014857Y019725D01*
X014902Y019770D01*
X014992Y019770D01*
X015037Y019725D01*
X014743Y019500D02*
X014563Y019500D01*
X014653Y019500D02*
X014653Y019770D01*
X014563Y019680D01*
X014037Y019500D02*
X013857Y019500D01*
X013947Y019500D02*
X013947Y019770D01*
X013857Y019680D01*
X013743Y019500D02*
X013563Y019500D01*
X013653Y019500D02*
X013653Y019770D01*
X013563Y019680D01*
X012987Y019680D02*
X012807Y019500D01*
X012987Y019500D01*
X012987Y019680D02*
X012987Y019725D01*
X012942Y019770D01*
X012852Y019770D01*
X012807Y019725D01*
X012603Y019770D02*
X012603Y019500D01*
X012513Y019500D02*
X012693Y019500D01*
X012513Y019680D02*
X012603Y019770D01*
X012025Y019725D02*
X012025Y019680D01*
X011980Y019635D01*
X012025Y019590D01*
X012025Y019545D01*
X011980Y019500D01*
X011890Y019500D01*
X011845Y019545D01*
X011730Y019500D02*
X011550Y019500D01*
X011640Y019500D02*
X011640Y019770D01*
X011550Y019680D01*
X011845Y019725D02*
X011890Y019770D01*
X011980Y019770D01*
X012025Y019725D01*
X011980Y019635D02*
X011935Y019635D01*
X011194Y019545D02*
X011194Y019725D01*
X011149Y019770D01*
X011014Y019770D01*
X011014Y019500D01*
X011149Y019500D01*
X011194Y019545D01*
X010900Y019500D02*
X010900Y019770D01*
X010720Y019770D02*
X010720Y019500D01*
X010605Y019545D02*
X010605Y019635D01*
X010515Y019635D01*
X010425Y019725D02*
X010425Y019545D01*
X010470Y019500D01*
X010560Y019500D01*
X010605Y019545D01*
X010605Y019725D02*
X010560Y019770D01*
X010470Y019770D01*
X010425Y019725D01*
X010207Y019770D02*
X010027Y019770D01*
X010027Y019500D01*
X009912Y019500D02*
X009822Y019590D01*
X009867Y019590D02*
X009732Y019590D01*
X009732Y019500D02*
X009732Y019770D01*
X009867Y019770D01*
X009912Y019725D01*
X009912Y019635D01*
X009867Y019590D01*
X010027Y019635D02*
X010117Y019635D01*
X009618Y019635D02*
X009438Y019635D01*
X009438Y019680D02*
X009528Y019770D01*
X009618Y019680D01*
X009618Y019500D01*
X009438Y019500D02*
X009438Y019680D01*
X009207Y019680D02*
X009207Y019500D01*
X009207Y019635D02*
X009027Y019635D01*
X009027Y019680D02*
X009117Y019770D01*
X009207Y019680D01*
X009027Y019680D02*
X009027Y019500D01*
X008912Y019545D02*
X008912Y019725D01*
X008867Y019770D01*
X008732Y019770D01*
X008732Y019500D01*
X008867Y019500D01*
X008912Y019545D01*
X008618Y019545D02*
X008573Y019500D01*
X008483Y019500D01*
X008438Y019545D01*
X008483Y019635D02*
X008573Y019635D01*
X008618Y019590D01*
X008618Y019545D01*
X008483Y019635D02*
X008438Y019680D01*
X008438Y019725D01*
X008483Y019770D01*
X008573Y019770D01*
X008618Y019725D01*
X008207Y019500D02*
X008027Y019500D01*
X008027Y019770D01*
X007912Y019725D02*
X007867Y019770D01*
X007777Y019770D01*
X007732Y019725D01*
X007732Y019545D01*
X007777Y019500D01*
X007867Y019500D01*
X007912Y019545D01*
X007618Y019545D02*
X007573Y019500D01*
X007483Y019500D01*
X007438Y019545D01*
X007483Y019635D02*
X007573Y019635D01*
X007618Y019590D01*
X007618Y019545D01*
X007483Y019635D02*
X007438Y019680D01*
X007438Y019725D01*
X007483Y019770D01*
X007573Y019770D01*
X007618Y019725D01*
X010720Y019770D02*
X010900Y019500D01*
X012563Y021025D02*
X012698Y021025D01*
X012743Y021070D01*
X012743Y021250D01*
X012698Y021295D01*
X012563Y021295D01*
X012563Y021025D01*
X012857Y021025D02*
X012947Y021025D01*
X012902Y021025D02*
X012902Y021295D01*
X012857Y021295D02*
X012947Y021295D01*
X013054Y021250D02*
X013054Y021070D01*
X013099Y021025D01*
X013189Y021025D01*
X013234Y021070D01*
X013234Y021160D01*
X013144Y021160D01*
X013234Y021250D02*
X013189Y021295D01*
X013099Y021295D01*
X013054Y021250D01*
X013348Y021295D02*
X013438Y021295D01*
X013393Y021295D02*
X013393Y021025D01*
X013348Y021025D02*
X013438Y021025D01*
X013635Y021025D02*
X013635Y021295D01*
X013545Y021295D02*
X013725Y021295D01*
X013839Y021205D02*
X013929Y021295D01*
X014019Y021205D01*
X014019Y021025D01*
X014134Y021025D02*
X014314Y021025D01*
X014134Y021025D02*
X014134Y021295D01*
X014019Y021160D02*
X013839Y021160D01*
X013839Y021205D02*
X013839Y021025D01*
X014723Y021025D02*
X014813Y021025D01*
X014768Y021025D02*
X014768Y021295D01*
X014723Y021295D02*
X014813Y021295D01*
X015100Y021295D02*
X014920Y021025D01*
X015214Y021070D02*
X015214Y021250D01*
X015259Y021295D01*
X015349Y021295D01*
X015395Y021250D01*
X015395Y021070D01*
X015349Y021025D01*
X015259Y021025D01*
X015214Y021070D01*
D12*
X005788Y019150D02*
X005788Y018900D01*
X005780Y018855D01*
X005769Y018811D01*
X005755Y018768D01*
X005737Y018726D01*
X005716Y018686D01*
X005691Y018647D01*
X005664Y018611D01*
X005634Y018576D01*
X005602Y018544D01*
X005567Y018515D01*
X005529Y018489D01*
X005490Y018466D01*
X005450Y018445D01*
X005407Y018429D01*
X005364Y018415D01*
X005319Y018405D01*
X005274Y018398D01*
X005229Y018395D01*
X005183Y018396D01*
X005138Y018400D01*
X001538Y018400D01*
X001525Y018403D02*
X001480Y018411D01*
X001436Y018422D01*
X001393Y018436D01*
X001351Y018454D01*
X001311Y018475D01*
X001272Y018500D01*
X001236Y018527D01*
X001201Y018557D01*
X001169Y018589D01*
X001140Y018624D01*
X001114Y018662D01*
X001091Y018701D01*
X001070Y018741D01*
X001054Y018784D01*
X001040Y018827D01*
X001030Y018872D01*
X001023Y018917D01*
X001020Y018962D01*
X001021Y019008D01*
X001025Y019053D01*
X001025Y018997D02*
X001021Y019042D01*
X001020Y019088D01*
X001023Y019133D01*
X001030Y019178D01*
X001040Y019223D01*
X001054Y019266D01*
X001070Y019309D01*
X001091Y019349D01*
X001114Y019388D01*
X001140Y019426D01*
X001169Y019461D01*
X001201Y019493D01*
X001236Y019523D01*
X001272Y019550D01*
X001311Y019575D01*
X001351Y019596D01*
X001393Y019614D01*
X001436Y019628D01*
X001480Y019639D01*
X001525Y019647D01*
X001538Y019650D02*
X005138Y019650D01*
X005186Y019654D01*
X005234Y019655D01*
X005281Y019651D01*
X005329Y019643D01*
X005375Y019632D01*
X005421Y019617D01*
X005465Y019598D01*
X005507Y019575D01*
X005547Y019549D01*
X005585Y019520D01*
X005621Y019487D01*
X005653Y019452D01*
X005683Y019415D01*
X005710Y019375D01*
X005733Y019333D01*
X005752Y019289D01*
X005768Y019244D01*
X005780Y019197D01*
X005788Y019150D01*
X003525Y010663D02*
X003387Y010663D01*
X003388Y010263D02*
X003475Y010263D01*
X006250Y009613D02*
X006250Y007313D01*
X006252Y007254D01*
X006258Y007196D01*
X006267Y007137D01*
X006281Y007080D01*
X006298Y007024D01*
X006319Y006969D01*
X006343Y006915D01*
X006371Y006863D01*
X006402Y006813D01*
X006436Y006765D01*
X006473Y006720D01*
X006514Y006677D01*
X006557Y006636D01*
X006602Y006599D01*
X006650Y006565D01*
X006700Y006534D01*
X006752Y006506D01*
X006806Y006482D01*
X006861Y006461D01*
X006917Y006444D01*
X006974Y006430D01*
X007033Y006421D01*
X007091Y006415D01*
X007150Y006413D01*
X007209Y006415D01*
X007267Y006421D01*
X007326Y006430D01*
X007383Y006444D01*
X007439Y006461D01*
X007494Y006482D01*
X007548Y006506D01*
X007600Y006534D01*
X007650Y006565D01*
X007698Y006599D01*
X007743Y006636D01*
X007786Y006677D01*
X007827Y006720D01*
X007864Y006765D01*
X007898Y006813D01*
X007929Y006863D01*
X007957Y006915D01*
X007981Y006969D01*
X008002Y007024D01*
X008019Y007080D01*
X008033Y007137D01*
X008042Y007196D01*
X008048Y007254D01*
X008050Y007313D01*
X008050Y009613D01*
X008048Y009672D01*
X008042Y009730D01*
X008033Y009789D01*
X008019Y009846D01*
X008002Y009902D01*
X007981Y009957D01*
X007957Y010011D01*
X007929Y010063D01*
X007898Y010113D01*
X007864Y010161D01*
X007827Y010206D01*
X007786Y010249D01*
X007743Y010290D01*
X007698Y010327D01*
X007650Y010361D01*
X007600Y010392D01*
X007548Y010420D01*
X007494Y010444D01*
X007439Y010465D01*
X007383Y010482D01*
X007326Y010496D01*
X007267Y010505D01*
X007209Y010511D01*
X007150Y010513D01*
X007091Y010511D01*
X007033Y010505D01*
X006974Y010496D01*
X006917Y010482D01*
X006861Y010465D01*
X006806Y010444D01*
X006752Y010420D01*
X006700Y010392D01*
X006650Y010361D01*
X006602Y010327D01*
X006557Y010290D01*
X006514Y010249D01*
X006473Y010206D01*
X006436Y010161D01*
X006402Y010113D01*
X006371Y010063D01*
X006343Y010011D01*
X006319Y009957D01*
X006298Y009902D01*
X006281Y009846D01*
X006267Y009789D01*
X006258Y009730D01*
X006252Y009672D01*
X006250Y009613D01*
D13*
X005529Y018845D02*
X005600Y018917D01*
X005529Y018988D01*
X005385Y018988D01*
X005313Y019060D01*
X005385Y019132D01*
X005600Y019132D01*
X005529Y018845D02*
X005313Y018845D01*
X005122Y018845D02*
X004906Y018845D01*
X004835Y018917D01*
X004835Y019060D01*
X004906Y019132D01*
X005122Y019132D01*
X004587Y019132D02*
X004587Y018845D01*
X004515Y018845D02*
X004659Y018845D01*
X004587Y019132D02*
X004515Y019132D01*
X004587Y019275D02*
X004587Y019347D01*
X004324Y019060D02*
X004324Y018845D01*
X004324Y019060D02*
X004252Y019132D01*
X004037Y019132D01*
X004037Y018845D01*
X003845Y018917D02*
X003845Y019060D01*
X003773Y019132D01*
X003630Y019132D01*
X003558Y019060D01*
X003558Y018917D01*
X003630Y018845D01*
X003773Y018845D01*
X003845Y018917D01*
X003374Y019132D02*
X003302Y019132D01*
X003159Y018988D01*
X003159Y018845D02*
X003159Y019132D01*
X002983Y019132D02*
X002840Y019132D01*
X002911Y019204D02*
X002911Y018917D01*
X002983Y018845D01*
X002648Y018988D02*
X002361Y018988D01*
X002361Y018917D02*
X002361Y019060D01*
X002432Y019132D01*
X002576Y019132D01*
X002648Y019060D01*
X002648Y018988D01*
X002576Y018845D02*
X002432Y018845D01*
X002361Y018917D01*
X002169Y018988D02*
X001882Y018988D01*
X001882Y018917D02*
X001882Y019060D01*
X001954Y019132D01*
X002097Y019132D01*
X002169Y019060D01*
X002169Y018988D01*
X002097Y018845D02*
X001954Y018845D01*
X001882Y018917D01*
X001698Y019132D02*
X001626Y019132D01*
X001483Y018988D01*
X001483Y018845D02*
X001483Y019132D01*
X001307Y019060D02*
X001164Y019060D01*
X001235Y019204D02*
X001235Y018845D01*
X001235Y019204D02*
X001307Y019275D01*
D14*
X001878Y017635D02*
X002063Y017635D01*
X002124Y017574D01*
X002124Y017512D01*
X002063Y017450D01*
X001878Y017450D01*
X002063Y017450D02*
X002124Y017388D01*
X002124Y017327D01*
X002063Y017265D01*
X001878Y017265D01*
X001878Y017635D01*
X002292Y017635D02*
X002354Y017635D01*
X002354Y017265D01*
X002415Y017265D02*
X002292Y017265D01*
X002568Y017327D02*
X002568Y017512D01*
X002568Y017327D02*
X002630Y017265D01*
X002815Y017265D01*
X002815Y017512D01*
X002982Y017450D02*
X003044Y017512D01*
X003168Y017512D01*
X003229Y017450D01*
X003229Y017388D01*
X002982Y017388D01*
X002982Y017327D02*
X002982Y017450D01*
X002982Y017327D02*
X003044Y017265D01*
X003168Y017265D01*
X003459Y017327D02*
X003459Y017574D01*
X003520Y017512D02*
X003397Y017512D01*
X003459Y017327D02*
X003520Y017265D01*
X003673Y017327D02*
X003673Y017450D01*
X003735Y017512D01*
X003858Y017512D01*
X003920Y017450D01*
X003920Y017327D01*
X003858Y017265D01*
X003735Y017265D01*
X003673Y017327D01*
X004087Y017327D02*
X004087Y017450D01*
X004149Y017512D01*
X004273Y017512D01*
X004334Y017450D01*
X004334Y017327D01*
X004273Y017265D01*
X004149Y017265D01*
X004087Y017327D01*
X004502Y017512D02*
X004625Y017512D01*
X004563Y017574D02*
X004563Y017327D01*
X004625Y017265D01*
X004778Y017265D02*
X004778Y017635D01*
X004840Y017512D02*
X004963Y017512D01*
X005025Y017450D01*
X005025Y017265D01*
X004778Y017450D02*
X004840Y017512D01*
X005040Y016947D02*
X005040Y016885D01*
X005040Y016762D02*
X004978Y016762D01*
X005040Y016762D02*
X005040Y016515D01*
X004978Y016515D02*
X005102Y016515D01*
X005254Y016577D02*
X005316Y016515D01*
X005501Y016515D01*
X005669Y016515D02*
X005854Y016515D01*
X005916Y016577D01*
X005854Y016638D01*
X005731Y016638D01*
X005669Y016700D01*
X005731Y016762D01*
X005916Y016762D01*
X006083Y016577D02*
X006145Y016577D01*
X006145Y016515D01*
X006083Y016515D01*
X006083Y016577D01*
X006290Y016577D02*
X006352Y016515D01*
X006537Y016515D01*
X006705Y016577D02*
X006766Y016515D01*
X006890Y016515D01*
X006952Y016577D01*
X006952Y016700D01*
X006890Y016762D01*
X006766Y016762D01*
X006705Y016700D01*
X006705Y016577D01*
X006537Y016762D02*
X006352Y016762D01*
X006290Y016700D01*
X006290Y016577D01*
X006268Y017265D02*
X006021Y017265D01*
X006021Y017635D01*
X006268Y017635D01*
X006144Y017450D02*
X006021Y017450D01*
X005854Y017265D02*
X005607Y017265D01*
X005607Y017635D01*
X005501Y016762D02*
X005316Y016762D01*
X005254Y016700D01*
X005254Y016577D01*
X004811Y016515D02*
X004811Y016700D01*
X004749Y016762D01*
X004564Y016762D01*
X004564Y016515D01*
X004396Y016577D02*
X004396Y016700D01*
X004335Y016762D01*
X004211Y016762D01*
X004150Y016700D01*
X004150Y016577D01*
X004211Y016515D01*
X004335Y016515D01*
X004396Y016577D01*
X003989Y016762D02*
X003928Y016762D01*
X003804Y016638D01*
X003804Y016515D02*
X003804Y016762D01*
X003651Y016762D02*
X003528Y016762D01*
X003590Y016824D02*
X003590Y016577D01*
X003651Y016515D01*
X003360Y016638D02*
X003114Y016638D01*
X003114Y016577D02*
X003114Y016700D01*
X003175Y016762D01*
X003299Y016762D01*
X003360Y016700D01*
X003360Y016638D01*
X003299Y016515D02*
X003175Y016515D01*
X003114Y016577D01*
X002946Y016638D02*
X002699Y016638D01*
X002699Y016577D02*
X002699Y016700D01*
X002761Y016762D01*
X002884Y016762D01*
X002946Y016700D01*
X002946Y016638D01*
X002884Y016515D02*
X002761Y016515D01*
X002699Y016577D01*
X002539Y016762D02*
X002477Y016762D01*
X002354Y016638D01*
X002354Y016515D02*
X002354Y016762D01*
X002201Y016700D02*
X002078Y016700D01*
X002139Y016824D02*
X002139Y016515D01*
X001932Y016515D02*
X001932Y016577D01*
X001871Y016577D01*
X001871Y016515D01*
X001932Y016515D01*
X001703Y016577D02*
X001703Y016762D01*
X001703Y016577D02*
X001641Y016515D01*
X001580Y016577D01*
X001518Y016515D01*
X001456Y016577D01*
X001456Y016762D01*
X001289Y016762D02*
X001289Y016577D01*
X001227Y016515D01*
X001165Y016577D01*
X001104Y016515D01*
X001042Y016577D01*
X001042Y016762D01*
X000874Y016762D02*
X000874Y016577D01*
X000813Y016515D01*
X000751Y016577D01*
X000689Y016515D01*
X000628Y016577D01*
X000628Y016762D01*
X002139Y016824D02*
X002201Y016885D01*
X006850Y017327D02*
X006911Y017265D01*
X007035Y017265D01*
X007097Y017327D01*
X007097Y017388D01*
X007035Y017450D01*
X006911Y017450D01*
X006850Y017512D01*
X006850Y017574D01*
X006911Y017635D01*
X007035Y017635D01*
X007097Y017574D01*
X007264Y017635D02*
X007264Y017265D01*
X007264Y017450D02*
X007326Y017512D01*
X007449Y017512D01*
X007511Y017450D01*
X007511Y017265D01*
X007678Y017265D02*
X007802Y017265D01*
X007740Y017265D02*
X007740Y017512D01*
X007678Y017512D01*
X007740Y017635D02*
X007740Y017697D01*
X007955Y017450D02*
X008016Y017512D01*
X008140Y017512D01*
X008202Y017450D01*
X008202Y017388D01*
X007955Y017388D01*
X007955Y017327D02*
X007955Y017450D01*
X007955Y017327D02*
X008016Y017265D01*
X008140Y017265D01*
X008369Y017265D02*
X008492Y017265D01*
X008431Y017265D02*
X008431Y017635D01*
X008369Y017635D01*
X008645Y017450D02*
X008645Y017327D01*
X008707Y017265D01*
X008892Y017265D01*
X008892Y017635D01*
X008892Y017512D02*
X008707Y017512D01*
X008645Y017450D01*
X008776Y016885D02*
X008776Y016515D01*
X009023Y016515D01*
X009191Y016577D02*
X009253Y016515D01*
X009376Y016515D01*
X009438Y016577D01*
X009438Y016638D01*
X009376Y016700D01*
X009253Y016700D01*
X009191Y016762D01*
X009191Y016824D01*
X009253Y016885D01*
X009376Y016885D01*
X009438Y016824D01*
X009605Y016885D02*
X009605Y016515D01*
X009605Y016700D02*
X009667Y016762D01*
X009790Y016762D01*
X009852Y016700D01*
X009852Y016515D01*
X010020Y016515D02*
X010143Y016515D01*
X010081Y016515D02*
X010081Y016762D01*
X010020Y016762D01*
X010081Y016885D02*
X010081Y016947D01*
X010296Y016700D02*
X010357Y016762D01*
X010481Y016762D01*
X010543Y016700D01*
X010543Y016638D01*
X010296Y016638D01*
X010296Y016577D02*
X010296Y016700D01*
X010296Y016577D02*
X010357Y016515D01*
X010481Y016515D01*
X010710Y016515D02*
X010834Y016515D01*
X010772Y016515D02*
X010772Y016885D01*
X010710Y016885D01*
X010986Y016700D02*
X011048Y016762D01*
X011233Y016762D01*
X011233Y016885D02*
X011233Y016515D01*
X011048Y016515D01*
X010986Y016577D01*
X010986Y016700D01*
X011050Y018150D02*
X010550Y018150D01*
X010300Y018400D01*
X010050Y018150D01*
X009550Y018150D01*
X009300Y018400D01*
X009050Y018150D01*
X008550Y018150D01*
X008300Y018400D01*
X008050Y018150D01*
X007550Y018150D01*
X007300Y018400D01*
X007300Y018900D01*
X007550Y019150D01*
X008050Y019150D01*
X008300Y018900D01*
X008550Y019150D01*
X009050Y019150D01*
X009300Y018900D01*
X009300Y018400D01*
X009300Y018900D01*
X009550Y019150D01*
X010050Y019150D01*
X010300Y018900D01*
X010550Y019150D01*
X011050Y019150D01*
X011300Y018900D01*
X011550Y019150D01*
X012050Y019150D01*
X012300Y018900D01*
X012550Y019150D01*
X013050Y019150D01*
X013300Y018900D01*
X013550Y019150D01*
X014050Y019150D01*
X014300Y018900D01*
X014550Y019150D01*
X015050Y019150D01*
X015300Y018900D01*
X015550Y019150D01*
X016050Y019150D01*
X016300Y018900D01*
X016550Y019150D01*
X017050Y019150D01*
X017300Y018900D01*
X017300Y018400D01*
X017050Y018150D01*
X016550Y018150D01*
X016300Y018400D01*
X016050Y018150D01*
X015550Y018150D01*
X015300Y018400D01*
X015050Y018150D01*
X014550Y018150D01*
X014300Y018400D01*
X014050Y018150D01*
X013550Y018150D01*
X013300Y018400D01*
X013050Y018150D01*
X012550Y018150D01*
X012300Y018400D01*
X012050Y018150D01*
X011550Y018150D01*
X011300Y018400D01*
X011050Y018150D01*
X009023Y016885D02*
X008776Y016885D01*
X008776Y016700D02*
X008900Y016700D01*
X008609Y016515D02*
X008362Y016515D01*
X008362Y016885D01*
X008195Y016824D02*
X008195Y016762D01*
X008133Y016700D01*
X007948Y016700D01*
X008133Y016700D02*
X008195Y016638D01*
X008195Y016577D01*
X008133Y016515D01*
X007948Y016515D01*
X007948Y016885D01*
X008133Y016885D01*
X008195Y016824D01*
X007780Y016885D02*
X007533Y016515D01*
X007366Y016515D02*
X007366Y016700D01*
X007304Y016762D01*
X007242Y016700D01*
X007242Y016515D01*
X007119Y016515D02*
X007119Y016762D01*
X007181Y016762D01*
X007242Y016700D01*
X007550Y019900D02*
X008050Y019900D01*
X008300Y020150D01*
X008550Y019900D01*
X009050Y019900D01*
X009300Y020150D01*
X009550Y019900D01*
X010050Y019900D01*
X010300Y020150D01*
X010550Y019900D01*
X011050Y019900D01*
X011300Y020150D01*
X011550Y019900D01*
X012050Y019900D01*
X012300Y020150D01*
X012550Y019900D01*
X013050Y019900D01*
X013300Y020150D01*
X013550Y019900D01*
X014050Y019900D01*
X014300Y020150D01*
X014550Y019900D01*
X015050Y019900D01*
X015300Y020150D01*
X015550Y019900D01*
X016050Y019900D01*
X016300Y020150D01*
X016550Y019900D01*
X017050Y019900D01*
X017300Y020150D01*
X017300Y020650D01*
X017050Y020900D01*
X016550Y020900D01*
X016300Y020650D01*
X016050Y020900D01*
X015550Y020900D01*
X015300Y020650D01*
X015050Y020900D01*
X014550Y020900D01*
X014300Y020650D01*
X014050Y020900D01*
X013550Y020900D01*
X013300Y020650D01*
X013050Y020900D01*
X012550Y020900D01*
X012300Y020650D01*
X012050Y020900D01*
X011550Y020900D01*
X011300Y020650D01*
X011050Y020900D01*
X010550Y020900D01*
X010300Y020650D01*
X010050Y020900D01*
X009550Y020900D01*
X009300Y020650D01*
X009050Y020900D01*
X008550Y020900D01*
X008300Y020650D01*
X008050Y020900D01*
X007550Y020900D01*
X007300Y020650D01*
X007300Y020150D01*
X007550Y019900D01*
X017900Y020150D02*
X018150Y019900D01*
X018650Y019900D01*
X018900Y020150D01*
X019150Y019900D01*
X019650Y019900D01*
X019900Y020150D01*
X020150Y019900D01*
X020650Y019900D01*
X020900Y020150D01*
X021150Y019900D01*
X021650Y019900D01*
X021900Y020150D01*
X022150Y019900D01*
X022650Y019900D01*
X022900Y020150D01*
X023150Y019900D01*
X023650Y019900D01*
X023900Y020150D01*
X024150Y019900D01*
X024650Y019900D01*
X024900Y020150D01*
X025150Y019900D01*
X025650Y019900D01*
X025900Y020150D01*
X025900Y020650D01*
X025650Y020900D01*
X025150Y020900D01*
X024900Y020650D01*
X024650Y020900D01*
X024150Y020900D01*
X023900Y020650D01*
X023650Y020900D01*
X023150Y020900D01*
X022900Y020650D01*
X022650Y020900D01*
X022150Y020900D01*
X021900Y020650D01*
X021650Y020900D01*
X021150Y020900D01*
X020900Y020650D01*
X020650Y020900D01*
X020150Y020900D01*
X019900Y020650D01*
X019650Y020900D01*
X019150Y020900D01*
X018900Y020650D01*
X018650Y020900D01*
X018150Y020900D01*
X017900Y020650D01*
X017900Y020150D01*
X018150Y019150D02*
X018650Y019150D01*
X018900Y018900D01*
X019150Y019150D01*
X019650Y019150D01*
X019900Y018900D01*
X020150Y019150D01*
X020650Y019150D01*
X020900Y018900D01*
X021150Y019150D01*
X021650Y019150D01*
X021900Y018900D01*
X022150Y019150D01*
X022650Y019150D01*
X022900Y018900D01*
X023150Y019150D01*
X023650Y019150D01*
X023900Y018900D01*
X024150Y019150D01*
X024650Y019150D01*
X024900Y018900D01*
X025150Y019150D01*
X025650Y019150D01*
X025900Y018900D01*
X025900Y018400D01*
X025650Y018150D01*
X025150Y018150D01*
X024900Y018400D01*
X024650Y018150D01*
X024150Y018150D01*
X023900Y018400D01*
X023650Y018150D01*
X023150Y018150D01*
X022900Y018400D01*
X022650Y018150D01*
X022150Y018150D01*
X021900Y018400D01*
X021650Y018150D01*
X021150Y018150D01*
X020900Y018400D01*
X020650Y018150D01*
X020150Y018150D01*
X019900Y018400D01*
X019650Y018150D01*
X019150Y018150D01*
X018900Y018400D01*
X018650Y018150D01*
X018150Y018150D01*
X017900Y018400D01*
X017900Y018900D01*
X018150Y019150D01*
X002900Y005400D02*
X002650Y005650D01*
X002150Y005650D01*
X001900Y005400D01*
X001650Y005650D01*
X001150Y005650D01*
X000900Y005400D01*
X000900Y004900D01*
X001150Y004650D01*
X001650Y004650D01*
X001900Y004900D01*
X002150Y004650D01*
X002650Y004650D01*
X002900Y004900D01*
X002900Y005400D01*
X008599Y005189D02*
X008599Y004874D01*
X008835Y004874D01*
X009465Y004874D02*
X009701Y004874D01*
X009701Y005189D01*
X011150Y003650D02*
X011650Y003650D01*
X011900Y003400D01*
X012150Y003650D01*
X012650Y003650D01*
X012900Y003400D01*
X013150Y003650D01*
X013650Y003650D01*
X013900Y003400D01*
X014150Y003650D01*
X014650Y003650D01*
X014900Y003400D01*
X015150Y003650D01*
X015650Y003650D01*
X015900Y003400D01*
X016150Y003650D01*
X016650Y003650D01*
X016900Y003400D01*
X017150Y003650D01*
X017650Y003650D01*
X017900Y003400D01*
X018150Y003650D01*
X018650Y003650D01*
X018900Y003400D01*
X018900Y002900D01*
X018650Y002650D01*
X018150Y002650D01*
X017900Y002900D01*
X017650Y002650D01*
X017150Y002650D01*
X016900Y002900D01*
X016650Y002650D01*
X016150Y002650D01*
X015900Y002900D01*
X015650Y002650D01*
X015150Y002650D01*
X014900Y002900D01*
X014650Y002650D01*
X014150Y002650D01*
X013900Y002900D01*
X013650Y002650D01*
X013150Y002650D01*
X012900Y002900D01*
X012650Y002650D01*
X012150Y002650D01*
X011900Y002900D01*
X011650Y002650D01*
X011150Y002650D01*
X010900Y002900D01*
X010900Y003400D01*
X011150Y003650D01*
X010006Y002650D02*
X008794Y002650D01*
X008400Y002150D02*
X008400Y001162D01*
X008794Y000650D02*
X010006Y000650D01*
X010400Y001162D02*
X010400Y002138D01*
X010900Y001650D02*
X010900Y001150D01*
X011150Y000900D01*
X011650Y000900D01*
X011900Y001150D01*
X012150Y000900D01*
X012650Y000900D01*
X012900Y001150D01*
X013150Y000900D01*
X013650Y000900D01*
X013900Y001150D01*
X014150Y000900D01*
X014650Y000900D01*
X014900Y001150D01*
X015150Y000900D01*
X015650Y000900D01*
X015900Y001150D01*
X016150Y000900D01*
X016650Y000900D01*
X016900Y001150D01*
X017150Y000900D01*
X017650Y000900D01*
X017900Y001150D01*
X018150Y000900D01*
X018650Y000900D01*
X018900Y001150D01*
X018900Y001650D01*
X018650Y001900D01*
X018150Y001900D01*
X017900Y001650D01*
X017650Y001900D01*
X017150Y001900D01*
X016900Y001650D01*
X016650Y001900D01*
X016150Y001900D01*
X015900Y001650D01*
X015650Y001900D01*
X015150Y001900D01*
X014900Y001650D01*
X014650Y001900D01*
X014150Y001900D01*
X013900Y001650D01*
X013650Y001900D01*
X013150Y001900D01*
X012900Y001650D01*
X012650Y001900D01*
X012150Y001900D01*
X011900Y001650D01*
X011650Y001900D01*
X011150Y001900D01*
X010900Y001650D01*
X008900Y001650D02*
X008902Y001694D01*
X008908Y001738D01*
X008918Y001781D01*
X008931Y001823D01*
X008948Y001864D01*
X008969Y001903D01*
X008993Y001940D01*
X009020Y001975D01*
X009050Y002007D01*
X009083Y002037D01*
X009119Y002063D01*
X009156Y002087D01*
X009196Y002106D01*
X009237Y002123D01*
X009280Y002135D01*
X009323Y002144D01*
X009367Y002149D01*
X009411Y002150D01*
X009455Y002147D01*
X009499Y002140D01*
X009542Y002129D01*
X009584Y002115D01*
X009624Y002097D01*
X009663Y002075D01*
X009699Y002051D01*
X009733Y002023D01*
X009765Y001992D01*
X009794Y001958D01*
X009820Y001922D01*
X009842Y001884D01*
X009861Y001844D01*
X009876Y001802D01*
X009888Y001760D01*
X009896Y001716D01*
X009900Y001672D01*
X009900Y001628D01*
X009896Y001584D01*
X009888Y001540D01*
X009876Y001498D01*
X009861Y001456D01*
X009842Y001416D01*
X009820Y001378D01*
X009794Y001342D01*
X009765Y001308D01*
X009733Y001277D01*
X009699Y001249D01*
X009663Y001225D01*
X009624Y001203D01*
X009584Y001185D01*
X009542Y001171D01*
X009499Y001160D01*
X009455Y001153D01*
X009411Y001150D01*
X009367Y001151D01*
X009323Y001156D01*
X009280Y001165D01*
X009237Y001177D01*
X009196Y001194D01*
X009156Y001213D01*
X009119Y001237D01*
X009083Y001263D01*
X009050Y001293D01*
X009020Y001325D01*
X008993Y001360D01*
X008969Y001397D01*
X008948Y001436D01*
X008931Y001477D01*
X008918Y001519D01*
X008908Y001562D01*
X008902Y001606D01*
X008900Y001650D01*
X019900Y001650D02*
X019900Y001150D01*
X020150Y000900D01*
X020650Y000900D01*
X020900Y001150D01*
X021150Y000900D01*
X021650Y000900D01*
X021900Y001150D01*
X022150Y000900D01*
X022650Y000900D01*
X022900Y001150D01*
X023150Y000900D01*
X023650Y000900D01*
X023900Y001150D01*
X024150Y000900D01*
X024650Y000900D01*
X024900Y001150D01*
X025150Y000900D01*
X025650Y000900D01*
X025900Y001150D01*
X025900Y001650D01*
X025650Y001900D01*
X025150Y001900D01*
X024900Y001650D01*
X024650Y001900D01*
X024150Y001900D01*
X023900Y001650D01*
X023650Y001900D01*
X023150Y001900D01*
X022900Y001650D01*
X022650Y001900D01*
X022150Y001900D01*
X021900Y001650D01*
X021650Y001900D01*
X021150Y001900D01*
X020900Y001650D01*
X020650Y001900D01*
X020150Y001900D01*
X019900Y001650D01*
X020150Y002650D02*
X020650Y002650D01*
X020900Y002900D01*
X021150Y002650D01*
X021650Y002650D01*
X021900Y002900D01*
X022150Y002650D01*
X022650Y002650D01*
X022900Y002900D01*
X023150Y002650D01*
X023650Y002650D01*
X023900Y002900D01*
X024150Y002650D01*
X024650Y002650D01*
X024900Y002900D01*
X025150Y002650D01*
X025650Y002650D01*
X025900Y002900D01*
X025900Y003400D01*
X025650Y003650D01*
X025150Y003650D01*
X024900Y003400D01*
X024650Y003650D01*
X024150Y003650D01*
X023900Y003400D01*
X023650Y003650D01*
X023150Y003650D01*
X022900Y003400D01*
X022650Y003650D01*
X022150Y003650D01*
X021900Y003400D01*
X021650Y003650D01*
X021150Y003650D01*
X020900Y003400D01*
X020650Y003650D01*
X020150Y003650D01*
X019900Y003400D01*
X019900Y002900D01*
X020150Y002650D01*
D15*
X009500Y007663D02*
X009500Y007763D01*
X009300Y007763D02*
X009300Y007663D01*
X008750Y007663D02*
X008750Y007763D01*
X008550Y007763D02*
X008550Y007663D01*
X008550Y009163D02*
X008550Y009263D01*
X008750Y009263D02*
X008750Y009163D01*
X009300Y009163D02*
X009300Y009263D01*
X009500Y009263D02*
X009500Y009163D01*
X009250Y011350D02*
X009250Y011450D01*
X009050Y011450D02*
X009050Y011350D01*
X008625Y011350D02*
X008625Y011450D01*
X008425Y011450D02*
X008425Y011350D01*
X008000Y011350D02*
X008000Y011450D01*
X007800Y011450D02*
X007800Y011350D01*
X007375Y011350D02*
X007375Y011450D01*
X007175Y011450D02*
X007175Y011350D01*
X006750Y011350D02*
X006750Y011450D01*
X006550Y011450D02*
X006550Y011350D01*
X005700Y011313D02*
X005600Y011313D01*
X005600Y011113D02*
X005700Y011113D01*
X004388Y011113D02*
X004288Y011113D01*
X004288Y011313D02*
X004388Y011313D01*
X002624Y013350D02*
X002624Y013450D01*
X002424Y013450D02*
X002424Y013350D01*
X002900Y015925D02*
X003000Y015925D01*
X003000Y016125D02*
X002900Y016125D01*
X011400Y019275D02*
X012150Y019275D01*
X012150Y019978D01*
X012400Y020025D02*
X012400Y019275D01*
X013150Y019275D01*
X013150Y019978D01*
X013400Y020025D02*
X013400Y019275D01*
X014150Y019275D01*
X014150Y019978D01*
X011400Y020025D02*
X011400Y019275D01*
X022025Y019400D02*
X022775Y019400D01*
X022775Y020009D01*
X023025Y020009D02*
X023025Y019400D01*
X023775Y019400D01*
X023775Y020009D01*
X022025Y020009D02*
X022025Y019400D01*
X008250Y005200D02*
X008250Y005100D01*
X008050Y005100D02*
X008050Y005200D01*
X007750Y003700D02*
X007750Y003600D01*
X007550Y003600D02*
X007550Y003700D01*
X002000Y006600D02*
X002000Y006700D01*
X001800Y006700D02*
X001800Y006600D01*
D16*
X003675Y010113D02*
X003825Y010113D01*
X003825Y010063D01*
X005975Y010063D01*
X005992Y010065D01*
X006009Y010069D01*
X006025Y010076D01*
X006039Y010086D01*
X006052Y010099D01*
X006062Y010113D01*
X006069Y010129D01*
X006073Y010146D01*
X006075Y010163D01*
X006075Y010763D01*
X006073Y010780D01*
X006069Y010797D01*
X006062Y010813D01*
X006052Y010827D01*
X006039Y010840D01*
X006025Y010850D01*
X006009Y010857D01*
X005992Y010861D01*
X005975Y010863D01*
X003825Y010863D01*
X003825Y010813D01*
X003675Y010813D01*
X003675Y010113D01*
X006450Y009613D02*
X006450Y007313D01*
X006452Y007262D01*
X006457Y007211D01*
X006467Y007161D01*
X006480Y007111D01*
X006496Y007063D01*
X006516Y007016D01*
X006540Y006970D01*
X006566Y006927D01*
X006596Y006885D01*
X006629Y006846D01*
X006664Y006809D01*
X006702Y006775D01*
X006743Y006744D01*
X006785Y006715D01*
X006830Y006690D01*
X006876Y006669D01*
X006924Y006650D01*
X006973Y006636D01*
X007023Y006625D01*
X007073Y006617D01*
X007124Y006613D01*
X007176Y006613D01*
X007227Y006617D01*
X007277Y006625D01*
X007327Y006636D01*
X007376Y006650D01*
X007424Y006669D01*
X007470Y006690D01*
X007515Y006715D01*
X007557Y006744D01*
X007598Y006775D01*
X007636Y006809D01*
X007671Y006846D01*
X007704Y006885D01*
X007734Y006927D01*
X007760Y006970D01*
X007784Y007016D01*
X007804Y007063D01*
X007820Y007111D01*
X007833Y007161D01*
X007843Y007211D01*
X007848Y007262D01*
X007850Y007313D01*
X007850Y009613D01*
X007848Y009664D01*
X007843Y009715D01*
X007833Y009765D01*
X007820Y009815D01*
X007804Y009863D01*
X007784Y009910D01*
X007760Y009956D01*
X007734Y009999D01*
X007704Y010041D01*
X007671Y010080D01*
X007636Y010117D01*
X007598Y010151D01*
X007557Y010182D01*
X007515Y010211D01*
X007470Y010236D01*
X007424Y010257D01*
X007376Y010276D01*
X007327Y010290D01*
X007277Y010301D01*
X007227Y010309D01*
X007176Y010313D01*
X007124Y010313D01*
X007073Y010309D01*
X007023Y010301D01*
X006973Y010290D01*
X006924Y010276D01*
X006876Y010257D01*
X006830Y010236D01*
X006785Y010211D01*
X006743Y010182D01*
X006702Y010151D01*
X006664Y010117D01*
X006629Y010080D01*
X006596Y010041D01*
X006566Y009999D01*
X006540Y009956D01*
X006516Y009910D01*
X006496Y009863D01*
X006480Y009815D01*
X006467Y009765D01*
X006457Y009715D01*
X006452Y009664D01*
X006450Y009613D01*
X007150Y008963D02*
X007150Y008713D01*
X006800Y008713D01*
X006800Y008563D02*
X007500Y008563D01*
X007500Y008363D01*
X006800Y008363D01*
X006800Y008563D01*
X007150Y008713D02*
X007500Y008713D01*
X007500Y008213D02*
X007150Y008213D01*
X007150Y007963D01*
X007150Y008213D02*
X006800Y008213D01*
X002710Y014840D02*
X002710Y015160D01*
X002490Y015160D01*
X001810Y015160D02*
X001590Y015160D01*
X001590Y014840D01*
X022000Y016600D02*
X022000Y017700D01*
X022002Y017717D01*
X022006Y017734D01*
X022013Y017750D01*
X022023Y017764D01*
X022036Y017777D01*
X022050Y017787D01*
X022066Y017794D01*
X022083Y017798D01*
X022100Y017800D01*
X022700Y017800D01*
X022717Y017798D01*
X022734Y017794D01*
X022750Y017787D01*
X022764Y017777D01*
X022777Y017764D01*
X022787Y017750D01*
X022794Y017734D01*
X022798Y017717D01*
X022800Y017700D01*
X022800Y016600D01*
X022798Y016583D01*
X022794Y016566D01*
X022787Y016550D01*
X022777Y016536D01*
X022764Y016523D01*
X022750Y016513D01*
X022734Y016506D01*
X022717Y016502D01*
X022700Y016500D01*
X022100Y016500D01*
X022083Y016502D01*
X022066Y016506D01*
X022050Y016513D01*
X022036Y016523D01*
X022023Y016536D01*
X022013Y016550D01*
X022006Y016566D01*
X022002Y016583D01*
X022000Y016600D01*
X023000Y016600D02*
X023000Y017700D01*
X023002Y017717D01*
X023006Y017734D01*
X023013Y017750D01*
X023023Y017764D01*
X023036Y017777D01*
X023050Y017787D01*
X023066Y017794D01*
X023083Y017798D01*
X023100Y017800D01*
X023700Y017800D01*
X023717Y017798D01*
X023734Y017794D01*
X023750Y017787D01*
X023764Y017777D01*
X023777Y017764D01*
X023787Y017750D01*
X023794Y017734D01*
X023798Y017717D01*
X023800Y017700D01*
X023800Y016600D01*
X023798Y016583D01*
X023794Y016566D01*
X023787Y016550D01*
X023777Y016536D01*
X023764Y016523D01*
X023750Y016513D01*
X023734Y016506D01*
X023717Y016502D01*
X023700Y016500D01*
X023100Y016500D01*
X023083Y016502D01*
X023066Y016506D01*
X023050Y016513D01*
X023036Y016523D01*
X023023Y016536D01*
X023013Y016550D01*
X023006Y016566D01*
X023002Y016583D01*
X023000Y016600D01*
X023350Y013300D02*
X024450Y013300D01*
X024467Y013298D01*
X024484Y013294D01*
X024500Y013287D01*
X024514Y013277D01*
X024527Y013264D01*
X024537Y013250D01*
X024544Y013234D01*
X024548Y013217D01*
X024550Y013200D01*
X024550Y012600D01*
X024548Y012583D01*
X024544Y012566D01*
X024537Y012550D01*
X024527Y012536D01*
X024514Y012523D01*
X024500Y012513D01*
X024484Y012506D01*
X024467Y012502D01*
X024450Y012500D01*
X023350Y012500D01*
X023333Y012502D01*
X023316Y012506D01*
X023300Y012513D01*
X023286Y012523D01*
X023273Y012536D01*
X023263Y012550D01*
X023256Y012566D01*
X023252Y012583D01*
X023250Y012600D01*
X023250Y013200D01*
X023252Y013217D01*
X023256Y013234D01*
X023263Y013250D01*
X023273Y013264D01*
X023286Y013277D01*
X023300Y013287D01*
X023316Y013294D01*
X023333Y013298D01*
X023350Y013300D01*
X023350Y012300D02*
X024450Y012300D01*
X024467Y012298D01*
X024484Y012294D01*
X024500Y012287D01*
X024514Y012277D01*
X024527Y012264D01*
X024537Y012250D01*
X024544Y012234D01*
X024548Y012217D01*
X024550Y012200D01*
X024550Y011600D01*
X024548Y011583D01*
X024544Y011566D01*
X024537Y011550D01*
X024527Y011536D01*
X024514Y011523D01*
X024500Y011513D01*
X024484Y011506D01*
X024467Y011502D01*
X024450Y011500D01*
X023350Y011500D01*
X023333Y011502D01*
X023316Y011506D01*
X023300Y011513D01*
X023286Y011523D01*
X023273Y011536D01*
X023263Y011550D01*
X023256Y011566D01*
X023252Y011583D01*
X023250Y011600D01*
X023250Y012200D01*
X023252Y012217D01*
X023256Y012234D01*
X023263Y012250D01*
X023273Y012264D01*
X023286Y012277D01*
X023300Y012287D01*
X023316Y012294D01*
X023333Y012298D01*
X023350Y012300D01*
X023350Y011300D02*
X024450Y011300D01*
X024467Y011298D01*
X024484Y011294D01*
X024500Y011287D01*
X024514Y011277D01*
X024527Y011264D01*
X024537Y011250D01*
X024544Y011234D01*
X024548Y011217D01*
X024550Y011200D01*
X024550Y010600D01*
X024548Y010583D01*
X024544Y010566D01*
X024537Y010550D01*
X024527Y010536D01*
X024514Y010523D01*
X024500Y010513D01*
X024484Y010506D01*
X024467Y010502D01*
X024450Y010500D01*
X023350Y010500D01*
X023333Y010502D01*
X023316Y010506D01*
X023300Y010513D01*
X023286Y010523D01*
X023273Y010536D01*
X023263Y010550D01*
X023256Y010566D01*
X023252Y010583D01*
X023250Y010600D01*
X023250Y011200D01*
X023252Y011217D01*
X023256Y011234D01*
X023263Y011250D01*
X023273Y011264D01*
X023286Y011277D01*
X023300Y011287D01*
X023316Y011294D01*
X023333Y011298D01*
X023350Y011300D01*
D17*
X007470Y001878D02*
X007470Y001578D01*
X007329Y001728D01*
X007330Y001728D02*
X007470Y001878D01*
X007330Y001898D02*
X007330Y001728D01*
X007330Y001558D01*
X007330Y001070D02*
X007330Y000900D01*
X007470Y001050D01*
X007470Y000750D01*
X007329Y000900D01*
X007330Y000900D02*
X007330Y000730D01*
D18*
X003540Y010263D03*
X003540Y010663D03*
D19*
X004550Y013442D02*
X008250Y013443D01*
X008273Y013445D01*
X008296Y013450D01*
X008318Y013459D01*
X008338Y013472D01*
X008356Y013487D01*
X008371Y013505D01*
X008384Y013525D01*
X008393Y013547D01*
X008398Y013570D01*
X008400Y013593D01*
X008400Y013950D01*
X008373Y013952D01*
X008346Y013957D01*
X008320Y013967D01*
X008296Y013979D01*
X008274Y013995D01*
X008254Y014013D01*
X008237Y014035D01*
X008222Y014058D01*
X008212Y014083D01*
X008204Y014109D01*
X008200Y014136D01*
X008200Y014164D01*
X008204Y014191D01*
X008212Y014217D01*
X008222Y014242D01*
X008237Y014265D01*
X008254Y014287D01*
X008274Y014305D01*
X008296Y014321D01*
X008320Y014333D01*
X008346Y014343D01*
X008373Y014348D01*
X008400Y014350D01*
X008400Y014708D01*
X008398Y014731D01*
X008393Y014754D01*
X008384Y014776D01*
X008371Y014796D01*
X008356Y014814D01*
X008338Y014829D01*
X008318Y014842D01*
X008296Y014851D01*
X008273Y014856D01*
X008250Y014858D01*
X004550Y014858D01*
X004527Y014856D01*
X004504Y014851D01*
X004482Y014842D01*
X004462Y014829D01*
X004444Y014814D01*
X004429Y014796D01*
X004416Y014776D01*
X004407Y014754D01*
X004402Y014731D01*
X004400Y014708D01*
X004400Y013592D01*
X004402Y013569D01*
X004407Y013546D01*
X004416Y013524D01*
X004429Y013504D01*
X004444Y013486D01*
X004462Y013471D01*
X004482Y013458D01*
X004504Y013449D01*
X004527Y013444D01*
X004550Y013442D01*
M02*
