G75*
G70*
%OFA0B0*%
%FSLAX24Y24*%
%IPPOS*%
%LPD*%
%AMOC8*
5,1,8,0,0,1.08239X$1,22.5*
%
%ADD10C,0.0080*%
%ADD11C,0.0160*%
%ADD12C,0.0090*%
D10*
X001067Y016615D02*
X001252Y016615D01*
X001314Y016677D01*
X001314Y016800D01*
X001252Y016862D01*
X001067Y016862D01*
X001067Y016985D02*
X001067Y016615D01*
X001466Y016615D02*
X001590Y016615D01*
X001528Y016615D02*
X001528Y016985D01*
X001590Y016985D01*
X001757Y016800D02*
X001757Y016738D01*
X002004Y016738D01*
X002004Y016677D02*
X002004Y016800D01*
X001943Y016862D01*
X001819Y016862D01*
X001757Y016800D01*
X001819Y016615D02*
X001943Y016615D01*
X002004Y016677D01*
X002157Y016615D02*
X002280Y016615D01*
X002219Y016615D02*
X002219Y016862D01*
X002280Y016862D01*
X002219Y016985D02*
X002219Y017047D01*
X002448Y016800D02*
X002448Y016615D01*
X002448Y016800D02*
X002510Y016862D01*
X002633Y016862D01*
X002695Y016800D01*
X002862Y016738D02*
X002862Y016677D01*
X002924Y016615D01*
X003047Y016615D01*
X003109Y016677D01*
X003047Y016800D02*
X002924Y016800D01*
X002862Y016738D01*
X002862Y016924D02*
X002924Y016985D01*
X003047Y016985D01*
X003109Y016924D01*
X003109Y016862D01*
X003047Y016800D01*
X003277Y016615D02*
X003524Y016615D01*
X003524Y016985D01*
X003277Y016985D01*
X003400Y016800D02*
X003524Y016800D01*
X003691Y016615D02*
X003938Y016615D01*
X003938Y016985D01*
X004105Y016924D02*
X004105Y016862D01*
X004167Y016800D01*
X004352Y016800D01*
X004167Y016800D02*
X004105Y016738D01*
X004105Y016677D01*
X004167Y016615D01*
X004352Y016615D01*
X004352Y016985D01*
X004167Y016985D01*
X004105Y016924D01*
X004520Y016985D02*
X004767Y016615D01*
X004934Y016615D02*
X004934Y016800D01*
X004996Y016862D01*
X005058Y016800D01*
X005058Y016615D01*
X005181Y016615D02*
X005181Y016862D01*
X005119Y016862D01*
X005058Y016800D01*
X005348Y016800D02*
X005348Y016677D01*
X005410Y016615D01*
X005534Y016615D01*
X005595Y016677D01*
X005595Y016800D01*
X005534Y016862D01*
X005410Y016862D01*
X005348Y016800D01*
X005763Y016862D02*
X005948Y016862D01*
X006010Y016800D01*
X006010Y016677D01*
X005948Y016615D01*
X005763Y016615D01*
X006155Y016615D02*
X006217Y016615D01*
X006217Y016677D01*
X006155Y016677D01*
X006155Y016615D01*
X006384Y016677D02*
X006446Y016738D01*
X006569Y016738D01*
X006631Y016800D01*
X006569Y016862D01*
X006384Y016862D01*
X006384Y016677D02*
X006446Y016615D01*
X006631Y016615D01*
X006799Y016615D02*
X006984Y016615D01*
X007046Y016677D01*
X007046Y016800D01*
X006984Y016862D01*
X006799Y016862D01*
X007198Y016615D02*
X007322Y016615D01*
X007260Y016615D02*
X007260Y016862D01*
X007322Y016862D01*
X007260Y016985D02*
X007260Y017047D01*
X007175Y017365D02*
X007237Y017427D01*
X007237Y017674D01*
X007298Y017612D02*
X007175Y017612D01*
X007022Y017550D02*
X006960Y017612D01*
X006837Y017612D01*
X006775Y017550D01*
X006775Y017365D01*
X007022Y017365D02*
X007022Y017735D01*
X007466Y017550D02*
X007527Y017612D01*
X007651Y017612D01*
X007713Y017550D01*
X007713Y017427D01*
X007651Y017365D01*
X007527Y017365D01*
X007466Y017427D01*
X007466Y017550D01*
X007880Y017550D02*
X007880Y017427D01*
X007942Y017365D01*
X008065Y017365D01*
X008127Y017427D01*
X008127Y017550D01*
X008065Y017612D01*
X007942Y017612D01*
X007880Y017550D01*
X008280Y017612D02*
X008403Y017612D01*
X008341Y017674D02*
X008341Y017427D01*
X008280Y017365D01*
X008571Y017488D02*
X008818Y017488D01*
X008818Y017427D02*
X008818Y017550D01*
X008756Y017612D01*
X008632Y017612D01*
X008571Y017550D01*
X008571Y017488D01*
X008632Y017365D02*
X008756Y017365D01*
X008818Y017427D01*
X008985Y017365D02*
X008985Y017612D01*
X009232Y017612D02*
X009232Y017427D01*
X009170Y017365D01*
X008985Y017365D01*
X009385Y017365D02*
X009508Y017365D01*
X009446Y017365D02*
X009446Y017735D01*
X009508Y017735D01*
X009676Y017674D02*
X009676Y017612D01*
X009737Y017550D01*
X009923Y017550D01*
X009923Y017365D02*
X009737Y017365D01*
X009676Y017427D01*
X009676Y017488D01*
X009737Y017550D01*
X009676Y017674D02*
X009737Y017735D01*
X009923Y017735D01*
X009923Y017365D01*
X010099Y016985D02*
X010161Y016924D01*
X010161Y016615D01*
X010222Y016800D02*
X010099Y016800D01*
X009946Y016738D02*
X009823Y016862D01*
X009761Y016862D01*
X009601Y016800D02*
X009601Y016677D01*
X009539Y016615D01*
X009416Y016615D01*
X009354Y016738D02*
X009601Y016738D01*
X009601Y016800D02*
X009539Y016862D01*
X009416Y016862D01*
X009354Y016800D01*
X009354Y016738D01*
X009186Y016738D02*
X008940Y016738D01*
X008940Y016800D01*
X009001Y016862D01*
X009125Y016862D01*
X009186Y016800D01*
X009186Y016677D01*
X009125Y016615D01*
X009001Y016615D01*
X008710Y016677D02*
X008710Y016924D01*
X008649Y016862D02*
X008772Y016862D01*
X008710Y016677D02*
X008649Y016615D01*
X008496Y016615D02*
X008496Y016862D01*
X008496Y016738D02*
X008372Y016862D01*
X008311Y016862D01*
X008150Y016800D02*
X008150Y016677D01*
X008089Y016615D01*
X007965Y016615D01*
X007904Y016677D01*
X007904Y016800D01*
X007965Y016862D01*
X008089Y016862D01*
X008150Y016800D01*
X007736Y016862D02*
X007736Y016615D01*
X007489Y016615D02*
X007489Y016800D01*
X007551Y016862D01*
X007736Y016862D01*
X006193Y017365D02*
X005946Y017365D01*
X005779Y017365D02*
X005532Y017365D01*
X005656Y017550D02*
X005779Y017550D01*
X005779Y017735D02*
X005779Y017365D01*
X005779Y017735D02*
X005532Y017735D01*
X004950Y017674D02*
X004950Y017612D01*
X004889Y017550D01*
X004765Y017550D01*
X004703Y017488D01*
X004703Y017427D01*
X004765Y017365D01*
X004889Y017365D01*
X004950Y017427D01*
X004536Y017365D02*
X004536Y017735D01*
X004474Y017612D02*
X004351Y017612D01*
X004289Y017550D01*
X004289Y017365D01*
X004122Y017365D02*
X003998Y017365D01*
X004060Y017365D02*
X004060Y017612D01*
X004122Y017612D01*
X004060Y017735D02*
X004060Y017797D01*
X003845Y017550D02*
X003784Y017612D01*
X003660Y017612D01*
X003598Y017550D01*
X003598Y017488D01*
X003845Y017488D01*
X003845Y017427D02*
X003845Y017550D01*
X003845Y017427D02*
X003784Y017365D01*
X003660Y017365D01*
X003431Y017365D02*
X003308Y017365D01*
X003369Y017365D02*
X003369Y017735D01*
X003431Y017735D01*
X003155Y017550D02*
X003093Y017612D01*
X002908Y017612D01*
X002908Y017735D02*
X002908Y017365D01*
X003093Y017365D01*
X003155Y017427D01*
X003155Y017550D01*
X002695Y016985D02*
X002695Y016615D01*
X004474Y017612D02*
X004536Y017550D01*
X004703Y017674D02*
X004765Y017735D01*
X004889Y017735D01*
X004950Y017674D01*
X006193Y017735D02*
X006193Y017365D01*
X009946Y016862D02*
X009946Y016615D01*
X010368Y016615D02*
X010429Y016615D01*
X010429Y016677D01*
X010368Y016677D01*
X010368Y016615D01*
X010597Y016677D02*
X010597Y016862D01*
X010597Y016677D02*
X010659Y016615D01*
X010720Y016677D01*
X010782Y016615D01*
X010844Y016677D01*
X010844Y016862D01*
X011011Y016862D02*
X011011Y016677D01*
X011073Y016615D01*
X011135Y016677D01*
X011196Y016615D01*
X011258Y016677D01*
X011258Y016862D01*
X011426Y016862D02*
X011426Y016677D01*
X011487Y016615D01*
X011549Y016677D01*
X011611Y016615D01*
X011673Y016677D01*
X011673Y016862D01*
D11*
X007888Y014900D02*
X004288Y014900D01*
X004240Y014896D01*
X004192Y014895D01*
X004145Y014899D01*
X004097Y014907D01*
X004051Y014918D01*
X004005Y014933D01*
X003961Y014952D01*
X003919Y014975D01*
X003879Y015001D01*
X003841Y015030D01*
X003805Y015063D01*
X003773Y015098D01*
X003743Y015135D01*
X003716Y015175D01*
X003693Y015217D01*
X003674Y015261D01*
X003658Y015306D01*
X003646Y015353D01*
X003638Y015400D01*
X003638Y015650D01*
X003646Y015697D01*
X003658Y015744D01*
X003674Y015789D01*
X003693Y015833D01*
X003716Y015875D01*
X003743Y015915D01*
X003773Y015952D01*
X003805Y015987D01*
X003841Y016020D01*
X003879Y016049D01*
X003919Y016075D01*
X003961Y016098D01*
X004005Y016117D01*
X004051Y016132D01*
X004097Y016143D01*
X004145Y016151D01*
X004192Y016155D01*
X004240Y016154D01*
X004288Y016150D01*
X007888Y016150D01*
X007936Y016154D01*
X007984Y016155D01*
X008031Y016151D01*
X008079Y016143D01*
X008125Y016132D01*
X008171Y016117D01*
X008215Y016098D01*
X008257Y016075D01*
X008297Y016049D01*
X008335Y016020D01*
X008371Y015987D01*
X008403Y015952D01*
X008433Y015915D01*
X008460Y015875D01*
X008483Y015833D01*
X008502Y015789D01*
X008518Y015744D01*
X008530Y015697D01*
X008538Y015650D01*
X008538Y015400D01*
X008530Y015355D01*
X008519Y015311D01*
X008505Y015268D01*
X008487Y015226D01*
X008466Y015186D01*
X008441Y015147D01*
X008414Y015111D01*
X008384Y015076D01*
X008352Y015044D01*
X008317Y015015D01*
X008279Y014989D01*
X008240Y014966D01*
X008200Y014945D01*
X008157Y014929D01*
X008114Y014915D01*
X008069Y014905D01*
X008024Y014898D01*
X007979Y014895D01*
X007933Y014896D01*
X007888Y014900D01*
D12*
X007973Y015345D02*
X007973Y015632D01*
X007830Y015632D02*
X007758Y015632D01*
X007830Y015632D02*
X007973Y015488D01*
X008149Y015560D02*
X008293Y015560D01*
X008221Y015704D02*
X008221Y015345D01*
X008221Y015704D02*
X008149Y015775D01*
X007574Y015560D02*
X007574Y015417D01*
X007503Y015345D01*
X007359Y015345D01*
X007287Y015488D02*
X007574Y015488D01*
X007574Y015560D02*
X007503Y015632D01*
X007359Y015632D01*
X007287Y015560D01*
X007287Y015488D01*
X007095Y015488D02*
X006809Y015488D01*
X006809Y015560D01*
X006880Y015632D01*
X007024Y015632D01*
X007095Y015560D01*
X007095Y015417D01*
X007024Y015345D01*
X006880Y015345D01*
X006545Y015417D02*
X006473Y015345D01*
X006545Y015417D02*
X006545Y015704D01*
X006617Y015632D02*
X006473Y015632D01*
X006297Y015632D02*
X006297Y015345D01*
X006297Y015488D02*
X006154Y015632D01*
X006082Y015632D01*
X005898Y015560D02*
X005898Y015417D01*
X005827Y015345D01*
X005683Y015345D01*
X005612Y015417D01*
X005612Y015560D01*
X005683Y015632D01*
X005827Y015632D01*
X005898Y015560D01*
X005420Y015632D02*
X005420Y015345D01*
X005420Y015632D02*
X005204Y015632D01*
X005133Y015560D01*
X005133Y015345D01*
X004941Y015345D02*
X004797Y015345D01*
X004869Y015345D02*
X004869Y015632D01*
X004941Y015632D01*
X004869Y015775D02*
X004869Y015847D01*
X004622Y015560D02*
X004622Y015417D01*
X004550Y015345D01*
X004335Y015345D01*
X004143Y015345D02*
X003928Y015345D01*
X003856Y015417D01*
X003928Y015488D01*
X004071Y015488D01*
X004143Y015560D01*
X004071Y015632D01*
X003856Y015632D01*
X004335Y015632D02*
X004550Y015632D01*
X004622Y015560D01*
M02*
