G75*
G70*
%OFA0B0*%
%FSLAX24Y24*%
%IPPOS*%
%LPD*%
%AMOC8*
5,1,8,0,0,1.08239X$1,22.5*
%
%ADD10C,0.0560*%
%ADD11C,0.0740*%
%ADD12C,0.0680*%
%ADD13C,0.1458*%
%ADD14C,0.1025*%
%ADD15R,0.0680X0.0680*%
D10*
X007150Y007513D03*
X007150Y009413D03*
D11*
X003025Y009963D03*
X003025Y010963D03*
X007800Y020400D03*
X008800Y020400D03*
X009800Y020400D03*
X010800Y020400D03*
X011800Y020400D03*
X012800Y020400D03*
X013800Y020400D03*
X014800Y020400D03*
X015800Y020400D03*
X016800Y020400D03*
X018400Y020400D03*
X019400Y020400D03*
X020400Y020400D03*
X021400Y020400D03*
X022400Y020400D03*
X023400Y020400D03*
X024400Y020400D03*
X025400Y020400D03*
X025455Y012380D03*
X025455Y011380D03*
X026455Y011380D03*
X026455Y012380D03*
X026455Y010380D03*
X025455Y010380D03*
X025400Y001400D03*
X024400Y001400D03*
X023400Y001400D03*
X022400Y001400D03*
X021400Y001400D03*
X020400Y001400D03*
X018400Y001400D03*
X017400Y001400D03*
X016400Y001400D03*
X015400Y001400D03*
X014400Y001400D03*
X013400Y001400D03*
X012400Y001400D03*
X011400Y001400D03*
D12*
X011400Y003150D03*
X012400Y003150D03*
X013400Y003150D03*
X014400Y003150D03*
X015400Y003150D03*
X016400Y003150D03*
X017400Y003150D03*
X017150Y005150D03*
X016150Y005150D03*
X015150Y005150D03*
X014150Y005150D03*
X013150Y005150D03*
X012150Y005150D03*
X011150Y005150D03*
X011150Y006150D03*
X012150Y006150D03*
X012150Y007150D03*
X011150Y007150D03*
X011150Y008150D03*
X012150Y008150D03*
X012150Y009150D03*
X011150Y009150D03*
X011150Y010150D03*
X012150Y010150D03*
X013150Y010150D03*
X014150Y010150D03*
X015150Y010150D03*
X016150Y010150D03*
X017150Y010150D03*
X018150Y010150D03*
X019150Y010150D03*
X020150Y010150D03*
X021150Y010150D03*
X021150Y009150D03*
X021150Y008150D03*
X022150Y008150D03*
X023150Y008150D03*
X024150Y008150D03*
X025150Y008150D03*
X026150Y008150D03*
X026150Y007150D03*
X026150Y006150D03*
X025150Y006150D03*
X025150Y007150D03*
X024150Y007150D03*
X023150Y007150D03*
X023150Y006150D03*
X024150Y006150D03*
X024150Y005150D03*
X023150Y005150D03*
X022150Y005150D03*
X021150Y005150D03*
X020150Y005150D03*
X019150Y005150D03*
X018150Y005150D03*
X018150Y006150D03*
X019150Y006150D03*
X019150Y007150D03*
X018150Y007150D03*
X017150Y007150D03*
X016150Y007150D03*
X016150Y006150D03*
X017150Y006150D03*
X015150Y006150D03*
X015150Y007150D03*
X014150Y007150D03*
X013150Y007150D03*
X013150Y006150D03*
X014150Y006150D03*
X014150Y008150D03*
X013150Y008150D03*
X013150Y009150D03*
X014150Y009150D03*
X015150Y009150D03*
X015150Y008150D03*
X016150Y008150D03*
X017150Y008150D03*
X017150Y009150D03*
X016150Y009150D03*
X018150Y009150D03*
X019150Y009150D03*
X019150Y008150D03*
X018150Y008150D03*
X020150Y008150D03*
X020150Y009150D03*
X020150Y007150D03*
X020150Y006150D03*
X021150Y006150D03*
X022150Y006150D03*
X022150Y007150D03*
X021150Y007150D03*
X025150Y005150D03*
X026150Y005150D03*
X025400Y003150D03*
X024400Y003150D03*
X023400Y003150D03*
X022400Y003150D03*
X021400Y003150D03*
X020400Y003150D03*
X020150Y011150D03*
X020150Y012150D03*
X019150Y012150D03*
X018150Y012150D03*
X018150Y011150D03*
X019150Y011150D03*
X017150Y011150D03*
X016150Y011150D03*
X016150Y012150D03*
X017150Y012150D03*
X017150Y013150D03*
X016150Y013150D03*
X016150Y014150D03*
X017150Y014150D03*
X018150Y014150D03*
X019150Y014150D03*
X019150Y013150D03*
X018150Y013150D03*
X020150Y013150D03*
X020150Y014150D03*
X021150Y014150D03*
X021150Y013150D03*
X021150Y012150D03*
X021150Y011150D03*
X021150Y015150D03*
X020150Y015150D03*
X019150Y015150D03*
X018150Y015150D03*
X017150Y015150D03*
X016150Y015150D03*
X015150Y015150D03*
X014150Y015150D03*
X013150Y015150D03*
X012150Y015150D03*
X011150Y015150D03*
X011150Y014150D03*
X012150Y014150D03*
X012150Y013150D03*
X011150Y013150D03*
X011150Y012150D03*
X012150Y012150D03*
X012150Y011150D03*
X011150Y011150D03*
X013150Y011150D03*
X014150Y011150D03*
X014150Y012150D03*
X013150Y012150D03*
X013150Y013150D03*
X014150Y013150D03*
X014150Y014150D03*
X013150Y014150D03*
X015150Y014150D03*
X015150Y013150D03*
X015150Y012150D03*
X015150Y011150D03*
X014800Y018650D03*
X015800Y018650D03*
X013800Y018650D03*
X012800Y018650D03*
X011800Y018650D03*
X010800Y018650D03*
X009800Y018650D03*
X008800Y018650D03*
X007800Y018650D03*
X018400Y018650D03*
X019400Y018650D03*
X020400Y018650D03*
X021400Y018650D03*
X022400Y018650D03*
X023400Y018650D03*
X024400Y018650D03*
X002400Y005150D03*
X001400Y005150D03*
D13*
X005900Y001400D03*
X026400Y014400D03*
X006400Y020400D03*
D14*
X026400Y003400D03*
D15*
X018400Y003150D03*
X016800Y018650D03*
X025400Y018650D03*
M02*
