%
M48
M72
T01C0.0157
T02C0.0320
T03C0.0394
T04C0.0400
T05C0.0945
T06C0.1378
%
T01
X7400Y2400
X7700Y2100
X8150Y1353
X8150Y2900
X8150Y3650
X8650Y4150
X7525Y4650
X9150Y6150
X6650Y6963
X6150Y7650
X6400Y9150
X5150Y9150
X3963Y10088
X4150Y10400
X3525Y9650
X2900Y8775
X2900Y8400
X2900Y8025
X2900Y7650
X2900Y7275
X3588Y7463
X2900Y6650
X1900Y7400
X5056Y10681
X3525Y11525
X2838Y12275
X4088Y12588
X3791Y13900
X3213Y14525
X2650Y15333
X1713Y13900
X1525Y13275
X1338Y12463
X4650Y13900
X4650Y14525
X5650Y14713
X6150Y13650
X7150Y13775
X7650Y13775
X7650Y14650
X8650Y14650
X9150Y15900
X8275Y16025
X7150Y16150
X8650Y13338
X9150Y12400
X7900Y12150
X9900Y10400
X9400Y9900
X22900Y12150
X23900Y9900
X23650Y15150
X24150Y15400
T02
X7150Y9413
X7150Y7513
X3025Y9963
X3025Y10963
T03
X7800Y20400
X8800Y20400
X9800Y20400
X10800Y20400
X11800Y20400
X12800Y20400
X13800Y20400
X14800Y20400
X15800Y20400
X16800Y20400
X18400Y20400
X19400Y20400
X20400Y20400
X21400Y20400
X22400Y20400
X23400Y20400
X24400Y20400
X25400Y20400
X25455Y12380
X25455Y11380
X26455Y11380
X26455Y12380
X26455Y10380
X25455Y10380
X25400Y1400
X24400Y1400
X23400Y1400
X22400Y1400
X21400Y1400
X20400Y1400
X18400Y1400
X17400Y1400
X16400Y1400
X15400Y1400
X14400Y1400
X13400Y1400
X12400Y1400
X11400Y1400
T04
X11400Y3150
X12400Y3150
X13400Y3150
X14400Y3150
X15400Y3150
X16400Y3150
X17400Y3150
X18400Y3150
X20400Y3150
X21400Y3150
X22400Y3150
X23400Y3150
X24400Y3150
X25400Y3150
X25150Y5150
X24150Y5150
X23150Y5150
X22150Y5150
X21150Y5150
X20150Y5150
X19150Y5150
X18150Y5150
X17150Y5150
X16150Y5150
X15150Y5150
X14150Y5150
X13150Y5150
X12150Y5150
X11150Y5150
X11150Y6150
X12150Y6150
X12150Y7150
X11150Y7150
X11150Y8150
X12150Y8150
X12150Y9150
X11150Y9150
X11150Y10150
X12150Y10150
X13150Y10150
X14150Y10150
X15150Y10150
X16150Y10150
X17150Y10150
X18150Y10150
X19150Y10150
X20150Y10150
X21150Y10150
X21150Y9150
X21150Y8150
X22150Y8150
X23150Y8150
X24150Y8150
X25150Y8150
X26150Y8150
X26150Y7150
X26150Y6150
X25150Y6150
X25150Y7150
X24150Y7150
X23150Y7150
X23150Y6150
X24150Y6150
X22150Y6150
X21150Y6150
X21150Y7150
X22150Y7150
X20150Y7150
X20150Y6150
X19150Y6150
X18150Y6150
X18150Y7150
X19150Y7150
X19150Y8150
X18150Y8150
X18150Y9150
X19150Y9150
X20150Y9150
X20150Y8150
X17150Y8150
X16150Y8150
X16150Y9150
X17150Y9150
X15150Y9150
X15150Y8150
X14150Y8150
X13150Y8150
X13150Y9150
X14150Y9150
X14150Y7150
X13150Y7150
X13150Y6150
X14150Y6150
X15150Y6150
X15150Y7150
X16150Y7150
X17150Y7150
X17150Y6150
X16150Y6150
X16150Y11150
X17150Y11150
X17150Y12150
X16150Y12150
X15150Y12150
X15150Y11150
X14150Y11150
X13150Y11150
X13150Y12150
X14150Y12150
X14150Y13150
X13150Y13150
X13150Y14150
X14150Y14150
X15150Y14150
X15150Y13150
X16150Y13150
X17150Y13150
X17150Y14150
X16150Y14150
X16150Y15150
X17150Y15150
X18150Y15150
X19150Y15150
X20150Y15150
X21150Y15150
X21150Y14150
X21150Y13150
X20150Y13150
X20150Y14150
X19150Y14150
X18150Y14150
X18150Y13150
X19150Y13150
X19150Y12150
X18150Y12150
X18150Y11150
X19150Y11150
X20150Y11150
X20150Y12150
X21150Y12150
X21150Y11150
X15150Y15150
X14150Y15150
X13150Y15150
X12150Y15150
X11150Y15150
X11150Y14150
X12150Y14150
X12150Y13150
X11150Y13150
X11150Y12150
X12150Y12150
X12150Y11150
X11150Y11150
X2400Y5150
X1400Y5150
X7800Y18650
X8800Y18650
X9800Y18650
X10800Y18650
X11800Y18650
X12800Y18650
X13800Y18650
X14800Y18650
X15800Y18650
X16800Y18650
X18400Y18650
X19400Y18650
X20400Y18650
X21400Y18650
X22400Y18650
X23400Y18650
X24400Y18650
X25400Y18650
X26150Y5150
T05
X26400Y3400
T06
X5900Y1400
X26400Y14400
X6400Y20400
M30
